<mxfile host="app.diagrams.net" modified="2023-08-06T07:42:33.093Z" agent="Mozilla/5.0 (Windows NT 10.0; Win64; x64) AppleWebKit/537.36 (KHTML, like Gecko) Chrome/115.0.0.0 Safari/537.36" etag="_PTV6U-rkxB70gfFax1u" version="21.3.5" type="github">
  <diagram name="第 1 页" id="9OSQlvmqz8tbQNN5Cx6f">
    <mxGraphModel dx="1222" dy="567" grid="1" gridSize="10" guides="1" tooltips="1" connect="1" arrows="1" fold="1" page="1" pageScale="1" pageWidth="827" pageHeight="1169" math="0" shadow="0">
      <root>
        <mxCell id="0" />
        <mxCell id="1" parent="0" />
        <mxCell id="NIDjE-EhYZSAO3xe9EpV-20" value="" style="ellipse;whiteSpace=wrap;html=1;align=center;dashed=1;rotation=30;fillColor=none;" parent="1" vertex="1">
          <mxGeometry x="114.45" y="299.85" width="150" height="82.19" as="geometry" />
        </mxCell>
        <mxCell id="NIDjE-EhYZSAO3xe9EpV-6" value="" style="shape=waypoint;sketch=0;fillStyle=solid;size=6;pointerEvents=1;points=[];fillColor=none;resizable=0;rotatable=0;perimeter=centerPerimeter;snapToPoint=1;" parent="1" vertex="1">
          <mxGeometry x="200" y="370" width="20" height="20" as="geometry" />
        </mxCell>
        <mxCell id="BGWmCEOkv6Jft1jm4b-4-23" value="" style="curved=1;endArrow=classic;html=1;rounded=0;strokeColor=#2A12A3;exitX=0.1;exitY=0.675;exitDx=0;exitDy=0;exitPerimeter=0;entryX=0.15;entryY=0.1;entryDx=0;entryDy=0;entryPerimeter=0;" parent="1" source="NIDjE-EhYZSAO3xe9EpV-6" target="NIDjE-EhYZSAO3xe9EpV-16" edge="1">
          <mxGeometry width="50" height="50" relative="1" as="geometry">
            <mxPoint x="540" y="370" as="sourcePoint" />
            <mxPoint x="520" y="327.81" as="targetPoint" />
            <Array as="points">
              <mxPoint x="230" y="360" />
            </Array>
          </mxGeometry>
        </mxCell>
        <mxCell id="NIDjE-EhYZSAO3xe9EpV-41" value="C&lt;span style=&quot;font-size: 8.33333px;&quot;&gt;&lt;sub&gt;11&lt;/sub&gt;&lt;/span&gt;" style="rounded=0;whiteSpace=wrap;html=1;fillColor=none;strokeColor=none;fontFamily=Times New Roman;" parent="1" vertex="1">
          <mxGeometry x="215" y="370" width="20" height="20" as="geometry" />
        </mxCell>
        <mxCell id="NIDjE-EhYZSAO3xe9EpV-24" value="C&lt;span style=&quot;font-size: 10px;&quot;&gt;&lt;sub&gt;4&lt;/sub&gt;&lt;/span&gt;" style="rounded=0;whiteSpace=wrap;html=1;fillColor=none;strokeColor=none;fontFamily=Times New Roman;" parent="1" vertex="1">
          <mxGeometry x="215" y="247" width="16" height="20" as="geometry" />
        </mxCell>
        <mxCell id="NIDjE-EhYZSAO3xe9EpV-21" value="C&lt;sub&gt;1&lt;/sub&gt;" style="rounded=0;whiteSpace=wrap;html=1;fillColor=none;strokeColor=none;fontFamily=Times New Roman;" parent="1" vertex="1">
          <mxGeometry x="204" y="212" width="16" height="20" as="geometry" />
        </mxCell>
        <mxCell id="BGWmCEOkv6Jft1jm4b-4-9" value="" style="curved=1;endArrow=classic;html=1;rounded=0;strokeColor=#2A12A3;" parent="1" edge="1">
          <mxGeometry width="50" height="50" relative="1" as="geometry">
            <mxPoint x="270" y="220" as="sourcePoint" />
            <mxPoint x="200" y="230" as="targetPoint" />
            <Array as="points" />
          </mxGeometry>
        </mxCell>
        <mxCell id="NIDjE-EhYZSAO3xe9EpV-26" value="C&lt;span style=&quot;font-size: 10px;&quot;&gt;&lt;sub&gt;5&lt;/sub&gt;&lt;/span&gt;" style="rounded=0;whiteSpace=wrap;html=1;fillColor=none;strokeColor=none;fontFamily=Times New Roman;" parent="1" vertex="1">
          <mxGeometry x="277" y="250" width="16" height="20" as="geometry" />
        </mxCell>
        <mxCell id="NIDjE-EhYZSAO3xe9EpV-23" value="C&lt;span style=&quot;font-size: 10px;&quot;&gt;&lt;sub&gt;3&lt;/sub&gt;&lt;/span&gt;" style="rounded=0;whiteSpace=wrap;html=1;fillColor=none;strokeColor=none;fontFamily=Times New Roman;" parent="1" vertex="1">
          <mxGeometry x="257" y="230" width="20" height="20" as="geometry" />
        </mxCell>
        <mxCell id="NIDjE-EhYZSAO3xe9EpV-18" value="/" style="ellipse;whiteSpace=wrap;html=1;align=center;dashed=1;fillColor=none;rotation=60;" parent="1" vertex="1">
          <mxGeometry x="141.22" y="230.66" width="245.28" height="91.37" as="geometry" />
        </mxCell>
        <mxCell id="NIDjE-EhYZSAO3xe9EpV-1" value="" style="shape=waypoint;sketch=0;fillStyle=solid;size=6;pointerEvents=1;points=[];fillColor=none;resizable=0;rotatable=0;perimeter=centerPerimeter;snapToPoint=1;" parent="1" vertex="1">
          <mxGeometry x="260" y="210" width="20" height="20" as="geometry" />
        </mxCell>
        <mxCell id="NIDjE-EhYZSAO3xe9EpV-2" value="" style="shape=waypoint;sketch=0;fillStyle=solid;size=6;pointerEvents=1;points=[];fillColor=none;resizable=0;rotatable=0;perimeter=centerPerimeter;snapToPoint=1;" parent="1" vertex="1">
          <mxGeometry x="285" y="287.81" width="20" height="20" as="geometry" />
        </mxCell>
        <mxCell id="NIDjE-EhYZSAO3xe9EpV-3" value="" style="shape=waypoint;sketch=0;fillStyle=solid;size=6;pointerEvents=1;points=[];fillColor=none;resizable=0;rotatable=0;perimeter=centerPerimeter;snapToPoint=1;" parent="1" vertex="1">
          <mxGeometry x="275" y="350" width="20" height="20" as="geometry" />
        </mxCell>
        <mxCell id="NIDjE-EhYZSAO3xe9EpV-4" value="" style="shape=waypoint;sketch=0;fillStyle=solid;size=6;pointerEvents=1;points=[];fillColor=none;resizable=0;rotatable=0;perimeter=centerPerimeter;snapToPoint=1;" parent="1" vertex="1">
          <mxGeometry x="290" y="250" width="20" height="20" as="geometry" />
        </mxCell>
        <mxCell id="NIDjE-EhYZSAO3xe9EpV-5" value="" style="shape=waypoint;sketch=0;fillStyle=solid;size=6;pointerEvents=1;points=[];fillColor=none;resizable=0;rotatable=0;perimeter=centerPerimeter;snapToPoint=1;" parent="1" vertex="1">
          <mxGeometry x="305" y="290" width="20" height="20" as="geometry" />
        </mxCell>
        <mxCell id="NIDjE-EhYZSAO3xe9EpV-7" value="" style="shape=waypoint;sketch=0;fillStyle=solid;size=6;pointerEvents=1;points=[];fillColor=none;resizable=0;rotatable=0;perimeter=centerPerimeter;snapToPoint=1;" parent="1" vertex="1">
          <mxGeometry x="180" y="297.81" width="20" height="20" as="geometry" />
        </mxCell>
        <mxCell id="NIDjE-EhYZSAO3xe9EpV-8" value="" style="shape=waypoint;sketch=0;fillStyle=solid;size=6;pointerEvents=1;points=[];fillColor=none;resizable=0;rotatable=0;perimeter=centerPerimeter;snapToPoint=1;" parent="1" vertex="1">
          <mxGeometry x="220" y="240" width="20" height="20" as="geometry" />
        </mxCell>
        <mxCell id="NIDjE-EhYZSAO3xe9EpV-9" value="" style="shape=waypoint;sketch=0;fillStyle=solid;size=6;pointerEvents=1;points=[];fillColor=none;resizable=0;rotatable=0;perimeter=centerPerimeter;snapToPoint=1;" parent="1" vertex="1">
          <mxGeometry x="190" y="220" width="20" height="20" as="geometry" />
        </mxCell>
        <mxCell id="NIDjE-EhYZSAO3xe9EpV-10" value="" style="shape=waypoint;sketch=0;fillStyle=solid;size=6;pointerEvents=1;points=[];fillColor=none;resizable=0;rotatable=0;perimeter=centerPerimeter;snapToPoint=1;" parent="1" vertex="1">
          <mxGeometry x="160" y="340" width="20" height="20" as="geometry" />
        </mxCell>
        <mxCell id="NIDjE-EhYZSAO3xe9EpV-11" value="" style="shape=waypoint;sketch=0;fillStyle=solid;size=6;pointerEvents=1;points=[];fillColor=none;resizable=0;rotatable=0;perimeter=centerPerimeter;snapToPoint=1;" parent="1" vertex="1">
          <mxGeometry x="130" y="300" width="20" height="20" as="geometry" />
        </mxCell>
        <mxCell id="NIDjE-EhYZSAO3xe9EpV-12" value="" style="shape=waypoint;sketch=0;fillStyle=solid;size=6;pointerEvents=1;points=[];fillColor=none;resizable=0;rotatable=0;perimeter=centerPerimeter;snapToPoint=1;" parent="1" vertex="1">
          <mxGeometry x="184" y="327.81" width="20" height="20" as="geometry" />
        </mxCell>
        <mxCell id="NIDjE-EhYZSAO3xe9EpV-13" value="" style="shape=waypoint;sketch=0;fillStyle=solid;size=6;pointerEvents=1;points=[];fillColor=none;resizable=0;rotatable=0;perimeter=centerPerimeter;snapToPoint=1;" parent="1" vertex="1">
          <mxGeometry x="270" y="230" width="20" height="20" as="geometry" />
        </mxCell>
        <mxCell id="NIDjE-EhYZSAO3xe9EpV-14" value="" style="shape=waypoint;sketch=0;fillStyle=solid;size=6;pointerEvents=1;points=[];fillColor=none;resizable=0;rotatable=0;perimeter=centerPerimeter;snapToPoint=1;" parent="1" vertex="1">
          <mxGeometry x="295" y="320" width="20" height="20" as="geometry" />
        </mxCell>
        <mxCell id="NIDjE-EhYZSAO3xe9EpV-16" value="" style="shape=waypoint;sketch=0;fillStyle=solid;size=6;pointerEvents=1;points=[];fillColor=none;resizable=0;rotatable=0;perimeter=centerPerimeter;snapToPoint=1;" parent="1" vertex="1">
          <mxGeometry x="230" y="330" width="20" height="20" as="geometry" />
        </mxCell>
        <mxCell id="NIDjE-EhYZSAO3xe9EpV-17" value="" style="verticalLabelPosition=bottom;verticalAlign=top;html=1;shape=mxgraph.basic.star;fillColor=#d5e8d4;strokeColor=#82b366;" parent="1" vertex="1">
          <mxGeometry x="240" y="290" width="10" height="10" as="geometry" />
        </mxCell>
        <mxCell id="NIDjE-EhYZSAO3xe9EpV-22" value="C&lt;span style=&quot;font-size: 10px;&quot;&gt;&lt;sub&gt;6&lt;/sub&gt;&lt;/span&gt;" style="rounded=0;whiteSpace=wrap;html=1;fillColor=none;strokeColor=none;fontFamily=Times New Roman;" parent="1" vertex="1">
          <mxGeometry x="280" y="297.81" width="16" height="20" as="geometry" />
        </mxCell>
        <mxCell id="NIDjE-EhYZSAO3xe9EpV-27" value="C&lt;span style=&quot;font-size: 10px;&quot;&gt;&lt;sub&gt;2&lt;/sub&gt;&lt;/span&gt;" style="rounded=0;whiteSpace=wrap;html=1;fillColor=none;strokeColor=none;fontFamily=Times New Roman;" parent="1" vertex="1">
          <mxGeometry x="252" y="203" width="16" height="20" as="geometry" />
        </mxCell>
        <mxCell id="NIDjE-EhYZSAO3xe9EpV-35" value="C&lt;span style=&quot;font-size: 8.33333px;&quot;&gt;&lt;sub&gt;13&lt;/sub&gt;&lt;/span&gt;" style="rounded=0;whiteSpace=wrap;html=1;fillColor=none;strokeColor=none;fontFamily=Times New Roman;" parent="1" vertex="1">
          <mxGeometry x="200" y="330" width="20" height="20" as="geometry" />
        </mxCell>
        <mxCell id="NIDjE-EhYZSAO3xe9EpV-36" value="C&lt;span style=&quot;font-size: 8.33333px;&quot;&gt;&lt;sub&gt;9&lt;/sub&gt;&lt;/span&gt;" style="rounded=0;whiteSpace=wrap;html=1;fillColor=none;strokeColor=none;fontFamily=Times New Roman;" parent="1" vertex="1">
          <mxGeometry x="290" y="350" width="20" height="20" as="geometry" />
        </mxCell>
        <mxCell id="NIDjE-EhYZSAO3xe9EpV-37" value="C&lt;span style=&quot;font-size: 8.33333px;&quot;&gt;&lt;sub&gt;8&lt;/sub&gt;&lt;/span&gt;" style="rounded=0;whiteSpace=wrap;html=1;fillColor=none;strokeColor=none;fontFamily=Times New Roman;" parent="1" vertex="1">
          <mxGeometry x="305" y="330" width="20" height="20" as="geometry" />
        </mxCell>
        <mxCell id="NIDjE-EhYZSAO3xe9EpV-38" value="C&lt;span style=&quot;font-size: 10px;&quot;&gt;&lt;sub&gt;7&lt;/sub&gt;&lt;/span&gt;" style="rounded=0;whiteSpace=wrap;html=1;fillColor=none;strokeColor=none;fontFamily=Times New Roman;" parent="1" vertex="1">
          <mxGeometry x="314" y="304" width="20" height="20" as="geometry" />
        </mxCell>
        <mxCell id="NIDjE-EhYZSAO3xe9EpV-40" value="C&lt;span style=&quot;font-size: 8.33333px;&quot;&gt;&lt;sub&gt;12&lt;/sub&gt;&lt;/span&gt;" style="rounded=0;whiteSpace=wrap;html=1;fillColor=none;strokeColor=none;fontFamily=Times New Roman;" parent="1" vertex="1">
          <mxGeometry x="160" y="350" width="20" height="20" as="geometry" />
        </mxCell>
        <mxCell id="NIDjE-EhYZSAO3xe9EpV-42" value="C&lt;span style=&quot;font-size: 8.33333px;&quot;&gt;&lt;sub&gt;10&lt;/sub&gt;&lt;/span&gt;" style="rounded=0;whiteSpace=wrap;html=1;fillColor=none;strokeColor=none;fontFamily=Times New Roman;" parent="1" vertex="1">
          <mxGeometry x="236" y="345.81" width="20" height="20" as="geometry" />
        </mxCell>
        <mxCell id="NIDjE-EhYZSAO3xe9EpV-45" value="C&lt;sub&gt;15&lt;br&gt;&lt;/sub&gt;" style="rounded=0;whiteSpace=wrap;html=1;fillColor=none;strokeColor=none;fontFamily=Times New Roman;" parent="1" vertex="1">
          <mxGeometry x="129" y="313" width="16" height="20" as="geometry" />
        </mxCell>
        <mxCell id="NIDjE-EhYZSAO3xe9EpV-46" value="C&lt;sub&gt;14&lt;/sub&gt;" style="rounded=0;whiteSpace=wrap;html=1;fillColor=none;strokeColor=none;fontFamily=Times New Roman;" parent="1" vertex="1">
          <mxGeometry x="180" y="307.81" width="16" height="20" as="geometry" />
        </mxCell>
        <mxCell id="BGWmCEOkv6Jft1jm4b-4-4" value="" style="curved=1;endArrow=classic;html=1;rounded=0;entryX=0.5;entryY=0;entryDx=0;entryDy=0;entryPerimeter=0;strokeColor=#2A12A3;exitX=0.625;exitY=0.925;exitDx=0;exitDy=0;exitPerimeter=0;" parent="1" target="NIDjE-EhYZSAO3xe9EpV-17" edge="1" source="NIDjE-EhYZSAO3xe9EpV-8">
          <mxGeometry width="50" height="50" relative="1" as="geometry">
            <mxPoint x="250" y="294" as="sourcePoint" />
            <mxPoint x="440" y="270" as="targetPoint" />
            <Array as="points" />
          </mxGeometry>
        </mxCell>
        <mxCell id="BGWmCEOkv6Jft1jm4b-4-5" value="" style="curved=1;endArrow=classic;html=1;rounded=0;strokeColor=#2A12A3;" parent="1" source="NIDjE-EhYZSAO3xe9EpV-4" target="NIDjE-EhYZSAO3xe9EpV-13" edge="1">
          <mxGeometry width="50" height="50" relative="1" as="geometry">
            <mxPoint x="260" y="304" as="sourcePoint" />
            <mxPoint x="310" y="270" as="targetPoint" />
            <Array as="points" />
          </mxGeometry>
        </mxCell>
        <mxCell id="BGWmCEOkv6Jft1jm4b-4-7" value="" style="curved=1;endArrow=classic;html=1;rounded=0;strokeColor=#2A12A3;exitX=0.725;exitY=0.135;exitDx=0;exitDy=0;exitPerimeter=0;" parent="1" source="NIDjE-EhYZSAO3xe9EpV-2" target="NIDjE-EhYZSAO3xe9EpV-4" edge="1">
          <mxGeometry width="50" height="50" relative="1" as="geometry">
            <mxPoint x="490" y="320" as="sourcePoint" />
            <mxPoint x="470" y="277.81" as="targetPoint" />
            <Array as="points" />
          </mxGeometry>
        </mxCell>
        <mxCell id="BGWmCEOkv6Jft1jm4b-4-8" value="" style="curved=1;endArrow=classic;html=1;rounded=0;strokeColor=#2A12A3;entryX=0.7;entryY=0.675;entryDx=0;entryDy=0;entryPerimeter=0;" parent="1" target="NIDjE-EhYZSAO3xe9EpV-8" edge="1">
          <mxGeometry width="50" height="50" relative="1" as="geometry">
            <mxPoint x="200" y="230" as="sourcePoint" />
            <mxPoint x="480" y="287.81" as="targetPoint" />
            <Array as="points" />
          </mxGeometry>
        </mxCell>
        <mxCell id="BGWmCEOkv6Jft1jm4b-4-10" value="" style="curved=1;endArrow=classic;html=1;rounded=0;strokeColor=#2A12A3;entryX=1;entryY=0.75;entryDx=0;entryDy=0;" parent="1" target="NIDjE-EhYZSAO3xe9EpV-27" edge="1">
          <mxGeometry width="50" height="50" relative="1" as="geometry">
            <mxPoint x="280" y="240" as="sourcePoint" />
            <mxPoint x="260" y="197.81" as="targetPoint" />
            <Array as="points" />
          </mxGeometry>
        </mxCell>
        <mxCell id="BGWmCEOkv6Jft1jm4b-4-13" value="" style="curved=1;endArrow=classic;html=1;rounded=0;strokeColor=#2A12A3;exitX=0.775;exitY=0.935;exitDx=0;exitDy=0;exitPerimeter=0;entryX=0.025;entryY=0.6;entryDx=0;entryDy=0;entryPerimeter=0;" parent="1" source="NIDjE-EhYZSAO3xe9EpV-12" target="NIDjE-EhYZSAO3xe9EpV-6" edge="1">
          <mxGeometry width="50" height="50" relative="1" as="geometry">
            <mxPoint x="500" y="330" as="sourcePoint" />
            <mxPoint x="480" y="287.81" as="targetPoint" />
            <Array as="points">
              <mxPoint x="200" y="360" />
            </Array>
          </mxGeometry>
        </mxCell>
        <mxCell id="BGWmCEOkv6Jft1jm4b-4-14" value="" style="curved=1;endArrow=classic;html=1;rounded=0;strokeColor=#2A12A3;exitX=0.875;exitY=0.6;exitDx=0;exitDy=0;exitPerimeter=0;entryX=0.3;entryY=0.56;entryDx=0;entryDy=0;entryPerimeter=0;" parent="1" source="NIDjE-EhYZSAO3xe9EpV-10" target="NIDjE-EhYZSAO3xe9EpV-12" edge="1">
          <mxGeometry width="50" height="50" relative="1" as="geometry">
            <mxPoint x="510" y="340" as="sourcePoint" />
            <mxPoint x="490" y="297.81" as="targetPoint" />
            <Array as="points" />
          </mxGeometry>
        </mxCell>
        <mxCell id="BGWmCEOkv6Jft1jm4b-4-15" value="" style="curved=1;endArrow=classic;html=1;rounded=0;strokeColor=#2A12A3;exitX=0.55;exitY=0.075;exitDx=0;exitDy=0;exitPerimeter=0;entryX=0.475;entryY=0.125;entryDx=0;entryDy=0;entryPerimeter=0;" parent="1" source="NIDjE-EhYZSAO3xe9EpV-11" target="NIDjE-EhYZSAO3xe9EpV-10" edge="1">
          <mxGeometry width="50" height="50" relative="1" as="geometry">
            <mxPoint x="520" y="350" as="sourcePoint" />
            <mxPoint x="500" y="307.81" as="targetPoint" />
            <Array as="points" />
          </mxGeometry>
        </mxCell>
        <mxCell id="BGWmCEOkv6Jft1jm4b-4-16" value="" style="curved=1;endArrow=classic;html=1;rounded=0;strokeColor=#2A12A3;exitX=0.5;exitY=0;exitDx=0;exitDy=0;entryX=0.5;entryY=0.15;entryDx=0;entryDy=0;entryPerimeter=0;" parent="1" source="NIDjE-EhYZSAO3xe9EpV-46" target="NIDjE-EhYZSAO3xe9EpV-11" edge="1">
          <mxGeometry width="50" height="50" relative="1" as="geometry">
            <mxPoint x="530" y="360" as="sourcePoint" />
            <mxPoint x="510" y="317.81" as="targetPoint" />
            <Array as="points">
              <mxPoint x="170" y="308" />
            </Array>
          </mxGeometry>
        </mxCell>
        <mxCell id="BGWmCEOkv6Jft1jm4b-4-18" value="" style="curved=1;endArrow=classic;html=1;rounded=0;strokeColor=#2A12A3;exitX=0;exitY=0.367;exitDx=0;exitDy=0;exitPerimeter=0;" parent="1" source="NIDjE-EhYZSAO3xe9EpV-17" edge="1">
          <mxGeometry width="50" height="50" relative="1" as="geometry">
            <mxPoint x="380" y="302.19" as="sourcePoint" />
            <mxPoint x="190" y="310" as="targetPoint" />
            <Array as="points" />
          </mxGeometry>
        </mxCell>
        <mxCell id="BGWmCEOkv6Jft1jm4b-4-19" value="" style="curved=1;endArrow=classic;html=1;rounded=0;strokeColor=#2A12A3;exitX=0.275;exitY=0.175;exitDx=0;exitDy=0;exitPerimeter=0;entryX=0.6;entryY=0.01;entryDx=0;entryDy=0;entryPerimeter=0;" parent="1" source="NIDjE-EhYZSAO3xe9EpV-5" target="NIDjE-EhYZSAO3xe9EpV-2" edge="1">
          <mxGeometry width="50" height="50" relative="1" as="geometry">
            <mxPoint x="500" y="330" as="sourcePoint" />
            <mxPoint x="480" y="287.81" as="targetPoint" />
            <Array as="points" />
          </mxGeometry>
        </mxCell>
        <mxCell id="BGWmCEOkv6Jft1jm4b-4-20" value="" style="curved=1;endArrow=classic;html=1;rounded=0;strokeColor=#2A12A3;exitX=0.275;exitY=0.575;exitDx=0;exitDy=0;exitPerimeter=0;entryX=0;entryY=0;entryDx=0;entryDy=0;" parent="1" source="NIDjE-EhYZSAO3xe9EpV-3" target="NIDjE-EhYZSAO3xe9EpV-37" edge="1">
          <mxGeometry width="50" height="50" relative="1" as="geometry">
            <mxPoint x="510" y="340" as="sourcePoint" />
            <mxPoint x="490" y="297.81" as="targetPoint" />
            <Array as="points" />
          </mxGeometry>
        </mxCell>
        <mxCell id="BGWmCEOkv6Jft1jm4b-4-21" value="" style="curved=1;endArrow=classic;html=1;rounded=0;strokeColor=#2A12A3;exitX=0.815;exitY=1;exitDx=0;exitDy=0;exitPerimeter=0;" parent="1" source="NIDjE-EhYZSAO3xe9EpV-17" target="NIDjE-EhYZSAO3xe9EpV-3" edge="1">
          <mxGeometry width="50" height="50" relative="1" as="geometry">
            <mxPoint x="520" y="350" as="sourcePoint" />
            <mxPoint x="500" y="307.81" as="targetPoint" />
            <Array as="points">
              <mxPoint x="270" y="340" />
            </Array>
          </mxGeometry>
        </mxCell>
        <mxCell id="BGWmCEOkv6Jft1jm4b-4-22" value="" style="curved=1;endArrow=classic;html=1;rounded=0;strokeColor=#2A12A3;entryX=0.185;entryY=1;entryDx=0;entryDy=0;entryPerimeter=0;exitX=0.55;exitY=0.3;exitDx=0;exitDy=0;exitPerimeter=0;" parent="1" source="NIDjE-EhYZSAO3xe9EpV-16" target="NIDjE-EhYZSAO3xe9EpV-17" edge="1">
          <mxGeometry width="50" height="50" relative="1" as="geometry">
            <mxPoint x="530" y="360" as="sourcePoint" />
            <mxPoint x="510" y="317.81" as="targetPoint" />
            <Array as="points" />
          </mxGeometry>
        </mxCell>
        <mxCell id="BGWmCEOkv6Jft1jm4b-4-24" value="" style="curved=1;endArrow=classic;html=1;rounded=0;strokeColor=#2A12A3;exitX=0.225;exitY=0.075;exitDx=0;exitDy=0;exitPerimeter=0;entryX=0.275;entryY=0.05;entryDx=0;entryDy=0;entryPerimeter=0;" parent="1" source="NIDjE-EhYZSAO3xe9EpV-14" target="NIDjE-EhYZSAO3xe9EpV-5" edge="1">
          <mxGeometry width="50" height="50" relative="1" as="geometry">
            <mxPoint x="510" y="340" as="sourcePoint" />
            <mxPoint x="490" y="297.81" as="targetPoint" />
            <Array as="points" />
          </mxGeometry>
        </mxCell>
      </root>
    </mxGraphModel>
  </diagram>
</mxfile>
